<?xml version="1.0" encoding="UTF-8"?>
<svg id="Layer_1" xmlns="http://www.w3.org/2000/svg" version="1.1" viewBox="0 0 400 400">
  <!-- Generator: Adobe Illustrator 29.5.1, SVG Export Plug-In . SVG Version: 2.1.0 Build 141)  -->
  <defs>
    <style>
      .st0 {
        fill: #5fb1cb;
      }

      .st1 {
        fill: #fff;
      }

      .st2 {
        fill: #72dad9;
      }
    </style>
  </defs>
  <rect class="st1" width="400" height="400"/>
  <g>
    <path class="st0" d="M24.1,212.9c-5.1,0-9.2,4.1-9.2,9.2s4.1,9.2,9.2,9.2h53.3c.8,0,1.6-.1,2.3-.3h0c.8-.2,1.4-.9,1.4-1.8s-.6-1.6-1.4-1.8c-2.4-.6-4.1-2.7-4.1-5.3s1.8-4.7,4.1-5.3c.8-.2,1.4-.9,1.4-1.8s-.6-1.6-1.4-1.8c-.7-.2-1.5-.3-2.3-.3H24.1ZM24.1,216.6h49.7c-1.2,1.5-1.9,3.4-1.9,5.5s.7,4,1.9,5.5H24.1c-3.1,0-5.5-2.4-5.5-5.5s2.4-5.5,5.5-5.5Z"/>
    <path class="st0" d="M24.1,190.8c-5.1,0-9.2,4.1-9.2,9.2s4.1,9.2,9.2,9.2h53.3c.8,0,1.6-.1,2.3-.3h0c.8-.2,1.4-.9,1.4-1.8s-.6-1.6-1.4-1.8c-2.4-.6-4.1-2.7-4.1-5.3s1.8-4.7,4.1-5.3c.8-.2,1.4-.9,1.4-1.8s-.6-1.6-1.4-1.8c-.7-.2-1.5-.3-2.3-.3H24.1ZM24.1,194.5h49.7c-1.2,1.5-1.9,3.4-1.9,5.5s.7,4,1.9,5.5H24.1c-3.1,0-5.5-2.4-5.5-5.5s2.4-5.5,5.5-5.5Z"/>
    <path class="st0" d="M31.4,168.7c-5.1,0-9.2,4.1-9.2,9.2s4.1,9.2,9.2,9.2h46c.8,0,1.6-.1,2.3-.3h0c.8-.2,1.4-.9,1.4-1.8s-.6-1.6-1.4-1.8c-2.4-.6-4.1-2.7-4.1-5.3s1.8-4.7,4.1-5.3c.8-.2,1.4-.9,1.4-1.8s-.6-1.6-1.4-1.8c-.7-.2-1.5-.3-2.3-.3H31.4ZM31.4,172.4h42.4c-1.2,1.5-1.9,3.4-1.9,5.5s.7,4,1.9,5.5H31.4c-3.1,0-5.5-2.4-5.5-5.5s2.4-5.5,5.5-5.5Z"/>
  </g>
  <path class="st2" d="M137.6,213.1v-29.6h4v29.6c0,3.3-2.6,5.9-5.9,5.9h-23.6c-3.3,0-5.9-2.6-5.9-5.9v-2.8h4v2.8c0,1,.9,1.9,1.9,1.9h23.6c1,0,1.9-.9,1.9-1.9ZM172,190.4h4v22.6c0,3.3-2.7,6-6,6h-17.1c-3.3,0-6-2.7-6-6v-22.6h4v22.6c0,1,.9,1.9,1.9,1.9h17.1c1.1,0,2-.9,2-1.9,0,0,0-22.6,0-22.6ZM210,196.4v.4h-4.1v-.4c0-1-.9-1.9-1.9-1.9h-17.1c-1,0-1.9.9-1.9,1.9v4.4c0,1,.9,1.9,1.9,1.9h17.1c3.4,0,6,2.7,6,6v4.4c0,3.3-2.7,6-6,6h-17.1c-3.3,0-6-2.7-6-6v-.4h4v.4c0,1,.9,1.9,1.9,1.9h17.1c1,0,1.9-.9,1.9-1.9v-4.4c0-1-.9-1.9-1.9-1.9h-17.1c-3.3,0-6-2.7-6-6v-4.4c0-3.3,2.7-6,6-6h17.1c3.4,0,6,2.7,6,6ZM231.4,194.4h-12.4v18.6c0,1,.9,1.9,1.9,1.9h10.4v4h-10.4c-3.4,0-6-2.7-6-6v-32h4v9.4h12.4s0,4,0,4ZM284.1,189.5v10.4c0,3.3-2.6,5.9-5.9,5.9h-5.4l11.1,13.2h-5.3l-11.1-13.2h-13c-.5,0-1.2,0-1.9-.2v13.4h-4v-35.4h29.6c3.3,0,5.9,2.7,5.9,5.9h0ZM254.6,201.7h23.6c1,0,1.9-.8,1.9-1.9v-10.4c0-1-.8-1.9-1.9-1.9h-23.6c-1,0-1.9.9-1.9,1.9v10.4c0,1,.9,1.9,1.9,1.9ZM312.2,190.4c3.4,0,6,2.7,6,6v10.3h-25.1v6.3c0,1,.9,1.9,1.9,1.9h23.2v4h-23.2c-3.3,0-6-2.7-6-6v-16.7c0-3.3,2.7-6,6-6h17.1ZM293.1,202.7h21v-6.3c0-1-.8-1.9-1.9-1.9h-17.1c-1,0-1.9.9-1.9,1.9v6.3ZM346.4,190.4c3.4,0,6,2.7,6,6v22.6h-23.2c-3.3,0-6-2.7-6-6v-10.3h25v-6.3c0-1-.8-1.9-1.9-1.9h-23.1v-4h23.1,0ZM348.3,214.9v-8.2h-21v6.3c0,1,.9,1.9,1.9,1.9h19.1ZM381.1,181h4v37.9h-23.1c-3.4,0-6-2.7-6-6v-16.7c0-3.3,2.7-6,6-6h19.1s0-9.4,0-9.4ZM362,214.9h17.1c1,0,1.9-.9,1.9-1.9v-16.7c0-1-.9-1.9-1.9-1.9h-17.1c-1,0-1.9.9-1.9,1.9v16.7c0,1,.9,1.9,1.9,1.9Z"/>
</svg>